<?xml version="1.0" encoding="UTF-8" standalone="no"?>
<!-- Created with Inkscape (http://www.inkscape.org/) -->

<svg
   xmlns:dc="http://purl.org/dc/elements/1.1/"
   xmlns:cc="http://creativecommons.org/ns#"
   xmlns:rdf="http://www.w3.org/1999/02/22-rdf-syntax-ns#"
   xmlns:svg="http://www.w3.org/2000/svg"
   xmlns="http://www.w3.org/2000/svg"
   xmlns:sodipodi="http://sodipodi.sourceforge.net/DTD/sodipodi-0.dtd"
   xmlns:inkscape="http://www.inkscape.org/namespaces/inkscape"
   version="1.1"
   width="2850"
   height="3200"
   id="svg2"
   inkscape:version="0.48.4 r9939"
   sodipodi:docname="botsad.svg">
  <sodipodi:namedview
     pagecolor="#ffffff"
     bordercolor="#666666"
     borderopacity="1"
     objecttolerance="10"
     gridtolerance="10"
     guidetolerance="10"
     inkscape:pageopacity="0"
     inkscape:pageshadow="2"
     inkscape:window-width="1920"
     inkscape:window-height="1018"
     id="namedview45"
     showgrid="false"
     inkscape:zoom="0.59"
     inkscape:cx="1441.1734"
     inkscape:cy="1527.3466"
     inkscape:window-x="-8"
     inkscape:window-y="-8"
     inkscape:window-maximized="1"
     inkscape:current-layer="svg2" />
  <defs
     id="defs4" />
  <metadata
     id="metadata7">
    <rdf:RDF>
      <cc:Work
         rdf:about="">
        <dc:format>image/svg+xml</dc:format>
        <dc:type
           rdf:resource="http://purl.org/dc/dcmitype/StillImage" />
        <dc:title />
      </cc:Work>
    </rdf:RDF>
  </metadata>
  <g
     transform="translate(0,2147.6383)"
     id="layer1">
    <path
       d="m 1346.4286,1611.4286 -40.7143,73.5714 -23.5714,-2.1429 2.8571,70 21.4286,3.5715 12.1428,74.2857 658.5715,54.2857 -34.2858,243.5714 c 1.9641,6.3691 0.7924,13.0866 10.7143,18.5715 l 109.5562,45 -325.8622,987.5 -494.4083,-18.2143 -45.7142,-702.8572 C 1175.9859,2259.4567 1150.0792,2069.8416 1124.2857,1880 L 1125,1628.5714 385,1585 l 1.42857,-120.7143 257.85714,4.2857 10,-266.7857 L 638.21429,1059.6428 357.8286,416.13163 107.913,214.34622 686.78118,34.181925 l 54.2232,214.403865 -2.09465,18.92 315.68957,955.44181 374.9504,3.2143 -8.4782,-43.6619 811.158,-20.4797 -0.087,-138.4489 120.7142,0.7143 65,328.5714 17.1429,223.5715 28.5714,-3.5715 -2.1428,-13.5714 183.5714,-17.8571 1.4286,39.2857 -259.2857,100.7143 -542.1429,-22.1429 -87.8571,-46.4286 z"
       transform="translate(0,-2147.6383)"
       id="path3895"
       style="fill:#f6d7e4;fill-opacity:1;stroke:none" />
    <path
       d="m 1320,3165 -57.1429,-1.4286 -42.8571,-697.8571 -64.2857,-519.2857 -12.1429,-127.1429 -5.7143,-235 c -7.033,-49.67 -22.8517,-68.5905 -37.1428,-92.8571 -19.6688,-14.4198 -47.764,-26.3246 -84.2857,-35.7143 L 838.57143,1445 c -43.88203,-4.4472 -80.58123,-11.7675 -115,-20 -6.1826,-1.2378 -13.34124,3.3807 -21.42857,13.5714 l -1.42857,40 348.57141,23.5715 c 13.9639,5.3087 24.5841,3.9301 49.2857,30.7142 9.3573,14.0619 17.2045,27.8218 17.1429,40 l 2.8571,47.8572 -722.85711,-44.2857 -2.14286,-104.2857 L 655,1476.4286 655.71429,1440 c 1.02628,-6.9828 -3.63507,-10.5794 -10,-15.7143 l 2.85714,-70.7143 330.71429,18.5715 c 15.09871,-1.9454 29.13388,-6.0179 38.57138,-19.2858 9.4157,-21.9986 4.0545,-24.2948 2.8572,-32.1428 l -49.28573,-125 c -2.83893,-2.1565 -4.18412,-5.4334 -14.28571,-2.1429 l -13.57143,3.5715 26.21937,70.375 c 2.03741,21.718 -4.44755,32.7687 -11.26269,38.283 -12.20214,10.5938 -22.51486,12.8815 -32.81382,12.0562 -65.74346,7.5607 -143.61476,-6.1038 -215.04333,-9.9133 l 3.61476,-79.3724 -51.42858,-2.1428 0.92349,-30.0793 -15.2092,-137.7779 -32.85714,-76.42855 222.14285,-95 87.85715,253.57145 15,-11.4286 c 5.40241,-4.4517 6.05169,-14.8255 5.71428,-26.4286 L 840.71429,761.42857 c -3.98793,-3.64416 -2.78829,-6.71193 -22.85715,-12.14286 l -25.2092,8.98985 31.93364,89.37237 L 597.85714,944.64285 367.14286,407.85714 140,227.14285 615,79.285711 631.42857,302.14285 763.57143,673.57143 790.71429,662.14285 c 4.62077,-6.13983 11.77724,-7.84221 9.28571,-26.42857 L 707.14286,352.85714 C 700.86649,328.78241 694.43375,305.95859 690,267.14285 l 5,-197.857139 30.71429,112.142859 -2.14286,100 c -1.45809,25 5.28421,50 17.14286,75 l 315.71431,957.85713 c 14.5654,17.6938 21.8235,36.1995 52.1428,52.1429 12.2854,5.9666 10.2618,10.5024 57.8572,20 l 132.8571,-2.1429 c 85.1446,-9.6077 105.0949,-14.7192 137.8572,-20.7143 8.909,-1.6062 15.6125,-9.829 20.7142,-22.8571 l -7.1428,-47.8572 -7.1429,-7.8571 -10.7143,1.4286 5,35.7143 c -2.4753,15.0537 -7.1371,14.8016 -11.4285,17.1428 l -123.5715,19.2857 -134.2857,1.4286 c -18.4073,-2.1059 -31.3182,-6.9599 -42.1428,-12.8571 -18.9499,-10.3709 -33.6669,-23.9165 -45,-40 l -27.8572,-85 375.7143,3.5714 2.8572,19.2857 7.1428,0 c 4.6898,0.487 5.4302,-4.9499 6.4286,-10 l -7.8572,-52.8571 26.4286,1.4285 6.4286,53.5715 c 7.7967,6.2189 9.894,3.8887 14.2857,5 l -5,-40.7143 297.8571,-6.4286 5.7576,96.5944 c -0.1249,7.2561 -6.1515,10.6307 -10.0433,14.1199 l -135.7143,7.1428 -123.4414,18.1531 c -8.0526,1.5701 -17.0904,-1.0759 -18.7014,-11.0102 l -5,-40.8802 -10,-0.635 c -5.8807,2.9366 -4.7323,3.3846 -5,7.2295 l 8.5714,51.4286 c 2.4453,6.8794 11.1405,14.9896 19.2857,17.1428 l 17.1429,-0.7143 140,-18.5714 114.7571,-6.4254 c 15.0406,-7.4685 21.0881,-18.3093 20.9022,-31.4877 l -6.8345,-124.7799 21.2615,-0.4724 5.667,129.2175 c 3.6557,12.6796 6.66,20.585 21.2724,24.4603 l 350.81,-13.4365 c 31.15,-10.8412 60.4848,-25.6759 72.8837,-77.7695 1.5332,-52.5763 1.8585,-85.825 5.088,-165.5414 1.5924,-13.4913 2.4806,-26.2783 7.71,-43.4067 l 71.5005,-3.189 -4.0872,24.6126 -12.8043,173.4852 c 3.5258,18.6774 11.2976,33.958 24.3447,45.0184 33.7923,18.0141 37.6499,11.0825 50.2864,11.4668 l 17.5366,75.6448 c -39.6835,-1.5519 -54.5608,13.4337 -66.0684,30.6658 -8.5005,-0.8068 -8.729,101.3246 -24.1827,135.3 -2.5072,25.8441 -14.7572,35.4501 -28.5487,42.487 -18.7005,5.8481 -46.8836,10.179 -112.7977,8.473 l -27.507,17.3863 -142.7556,-0.855 -29.5551,-15.5518 -190.3075,-1.0166 -135,-0.7144 -355.7143,-2.8571 c -12.8931,2.0596 -20.0228,6.7571 -27.1428,13.5714 -6.3432,6.25 -14.5293,16.4286 -15.7143,25.7143 l 8.5714,303.5714 c 9.6635,26.7475 17.1169,53.665 50.7143,78.5715 l 360.7143,121.4285 26.4286,0.7143 138.5714,45.7143 c 3.3986,4.2857 8.5071,8.5714 15.7143,12.8571 l 186.0535,61.6811 -9.5383,28.5714 L 1315,2017.8571 c -12.0566,0.2831 -23.9578,-0.211 -37.8571,9.2858 -8.6114,8.7896 -15.1978,18.5916 -20,29.2857 l 35.7142,595.7143 c 6.5855,6.5084 13.0094,13.0571 12.1429,21.4285 l 8.5714,150 c -3.0952,8.6376 -6.1905,16.1224 -9.2857,22.8572 l 1.4286,41.4285 c 4.311,4.1477 9.7152,5.6898 21.4286,4.2858 L 1427.8571,2805 l -12.1428,0 -46.4286,40.7143 -10.7143,-262.8572 166.4286,-5.7142 c 12.8417,65.6606 47.3459,95.2171 88.5714,113.5714 l 6.4286,115 -138.5714,-1.4286 -157.8571,134.2857 c -3.5715,5.6499 -9.2858,7.965 -12.8572,20.7143 l 5,72.8572 c 7.3946,9.5253 5.6941,18.0401 28.5714,29.2857 l 90,-1.4286 c 14.4847,-5.6298 29.4579,-6.3737 42.1429,-30 l 7.1428,-12.8571 -5.7143,-146.4286 c 3.0893,-8.5714 4.6292,-17.1429 24.2858,-25.7143 L 1615,2841.4286 c 8.1578,6.0654 17.1591,10.4436 23.5714,20 l 5.7143,124.2857 -11.4286,0 3.5715,77.8571 10.7143,-1.4285 c -4.8135,22.1179 -16.8553,35.9749 -35,42.8571 l -255.7143,17.1429 c -20.385,6.9594 -33.1814,20.6642 -36.4286,42.8571 z"
       transform="translate(0,-2147.6383)"
       id="path3889"
       style="fill:#999a99;fill-opacity:1;stroke:none" />
    <path
       d="m 1532.4015,3128.2792 -26.2641,42.4264 -169.7056,-6.0609 3.0305,-10.6066 c 16.8252,-13.0055 24.185,-13.3905 33.335,-16.1625 z"
       transform="translate(0,-2147.6383)"
       id="path3069"
       style="fill:#86ba56;fill-opacity:1;stroke:none" />
    <path
       d="m 1517.7542,3171.7157 27.2741,-43.9416 89.3985,-3.5355 c 4.8824,2.5843 9.7648,5.0015 14.6472,14.1421 l -0.505,38.3858 z"
       transform="translate(0,-2147.6383)"
       id="path3839"
       style="fill:#86ba56;fill-opacity:1;stroke:none" />
    <path
       d="m 1717.2593,2716.1369 -32.8299,5.0508 2.5254,73.7411 58.5888,56.0635 4.0406,66.6701 -51.0127,159.6041 2.0203,40.4061 48.4873,32.3248 97.9848,-302.0356 c -7.3378,-15.1999 -24.4857,-28.4379 -37.8807,-42.4264 -31.6857,-22.4886 -62.9048,-48.2437 -91.9239,-89.3985 z"
       transform="translate(0,-2147.6383)"
       id="path3841"
       style="fill:#86ba56;fill-opacity:1;stroke:none" />
    <path
       d="m 1783.4243,2682.8019 c -19.5296,13.8139 -39.0592,22.1484 -58.5888,29.2944 13.094,19.6154 34.3994,42.5154 67.6802,70.2056 12.0911,8.4486 23.0823,17.9972 33.8401,27.7792 11.267,11.4151 22.6704,22.9275 24.7487,27.7792 l 28.2843,-86.8731 z"
       transform="translate(0,-2147.6383)"
       id="path3843"
       style="fill:#86ba56;fill-opacity:1;stroke:none" />
    <path
       d="m 1824.3355,2625.2232 c -13.7465,24.0865 -22.8496,35.4539 -32.83,49.4975 l 91.9239,66.6701 33.8401,-104.0458 c -34.724,-0.2946 -66.2825,-3.7547 -92.934,-12.1218 z"
       transform="translate(0,-2147.6383)"
       id="path3845"
       style="fill:#86ba56;fill-opacity:1;stroke:none" />
    <path
       d="m 1948.5843,2540.3704 c -33.3792,8.5778 -67.3005,14.9876 -102.0254,18.1827 -3.0313,19.9672 -8.4309,39.4607 -18.1828,58.0838 36.7942,10.3444 62.4869,9.315 91.9239,12.1218 z"
       transform="translate(0,-2147.6383)"
       id="path3847"
       style="fill:#86ba56;fill-opacity:1;stroke:none" />
    <path
       d="m 1968.2822,2272.1749 36.8706,13.637 -80.8122,245.9722 -42.9315,7.0711 z"
       transform="translate(0,-2147.6383)"
       id="path3849"
       style="fill:#86ba56;fill-opacity:1;stroke:none" />
    <path
       d="m 2057.6807,2214.0911 -121.7233,-39.901 c -8.5816,-6.3757 -18.7074,-14.3941 -18.6879,-36.3655 l 34.8503,-218.698 c -1.1533,-11.5367 -5.9762,-10.2298 -9.5965,-13.132 l -69.7005,-6.566 c -8.0786,0.9097 -11.2482,2.8011 -12.6269,5.0508 l -19.698,59.0939 c -10.022,15.7214 -22.8216,19.4064 -36.8705,17.6777 l -135.3605,-42.9315 c -16.9747,-3.229 -26.4367,2.6014 -35.3553,14.1421 l -36.8706,79.8021 c -9.6109,10.131 -20.9511,18.0387 -39.901,16.1624 -75.5186,-25.9094 -148.8482,-46.3464 -226.7792,-78.2868 -20.4846,-16.7169 -31.4397,-38.728 -39.9011,-62.1244 l -4.0406,-155.0584 21.2132,3.0304 11.6168,74.2462 658.6194,54.5483 -33.8401,244.962 c 1.727,6.6159 2.4225,13.6445 10.6066,17.6776 l 110.6117,44.4467 z"
       transform="translate(0,-2147.6383)"
       id="path3851"
       style="fill:#86ba56;fill-opacity:1;stroke:none" />
    <path
       d="m 1687.4598,2412.081 c -36.7722,-2.9321 -61.8694,5.8109 -85.3579,16.1625 l -240.9213,-154.0483 c -24.907,-11.55 -34.9675,-15.002 -45.4569,-18.6878 -30.8306,-11.2653 -26.4366,-19.0081 -32.3249,-27.7792 l -9.0914,-169.2006 c 6.3201,-11.747 11.6889,-16.8351 16.6676,-19.1929 8.8427,-5.491 16.7426,-6.268 24.2436,-5.0507 l 441.4367,146.4721 c 4.1013,5.4813 9.742,4.8052 10.1015,25.2538 z"
       transform="translate(0,-2147.6383)"
       id="path3853"
       style="fill:#86ba56;fill-opacity:1;stroke:none" />
    <path
       d="m 1655.64,3062.1142 c -0.8528,12.6295 -5.724,22.9113 -14.6472,32.8299 -11.1089,12.1135 -19.2583,15.3484 -27.7792,19.698 l -236.8808,12.1218 c -9.3947,-0.9832 -9.3519,-3.8538 -12.6269,-6.0609 l 246.4773,-15.1523 c 8.2205,-4.7081 15.8051,-5.6006 25.2538,-17.6776 7.6791,-10.8704 10.646,-18.9135 11.6167,-25.7589 z"
       transform="translate(0,-2147.6383)"
       id="path3855"
       style="fill:#86ba56;fill-opacity:1;stroke:none" />
    <path
       d="m 1448.0537,3018.6776 c -1.8611,6.7344 -4.252,13.4687 -10.1016,20.2031 -14.4898,11.6313 -18.2091,8.9021 -25.2538,10.6066 l -57.0736,0.5051 c -19.8344,-4.7102 -21.9571,-13.8598 -26.2639,-23.7386 l -5.0508,-67.6803 c 1.6162,-4.6551 6.6423,-10.1627 13.637,-16.1624 l 79.8021,-66.67 c 5.5826,-2.6 11.4606,-4.1665 19.698,2.5253 2.4768,3.3672 4.4244,6.7343 5.5558,10.1015 -0.1018,20.8193 4.2778,109.1451 5.0508,130.3097 z"
       transform="translate(0,-2147.6383)"
       id="path3857"
       style="fill:#86ba56;fill-opacity:1;stroke:none" />
    <path
       d="m 1483.409,3016.6574 -6.5659,13.6369 -7.0711,-159.604 c 2.6937,-9.4281 6.7343,-16.8359 12.1218,-22.2234 4.0665,-2.5901 7.3254,-4.9111 19.1929,-10.1015 l 110.6117,-3.0305 c 13.0556,3.0227 25.1523,11.4269 25.2538,14.6472 l -10.1015,0.5051 c -6.2109,-4.3497 -12.1031,-8.2214 -15.6574,-8.5863 l -109.0965,4.0406 c -8.893,2.9538 -14.1565,6.815 -17.6776,11.1117 -6.1543,6.4849 -2.9891,13.3989 -5.5558,18.6879 z"
       transform="translate(0,-2147.6383)"
       id="path3859"
       style="fill:#86ba56;fill-opacity:1;stroke:none" />
    <path
       d="m 1428.3557,2804.5253 -66.165,57.5787 -12.1218,-287.8935 182.8376,-4.5457 c 2.2886,22.4018 11.0394,46.2949 30.8096,72.731 13.8735,18.0762 33.2735,31.4156 56.5686,41.4162 l 8.5863,130.8148 -158.0889,-1.0102 10.1015,-9.5964 138.3909,2.0203 -6.566,-116.1675 c -17.771,-7.1258 -35.6191,-16.23 -56.0634,-39.396 -21.3102,-26.7645 -30.5414,-58.2635 -31.3148,-72.731 l -166.6751,5.5559 10.6066,262.6396 45.9619,-40.9112 z"
       transform="translate(0,-2147.6383)"
       id="path3861"
       style="fill:#86ba56;fill-opacity:1;stroke:none" />
    <path
       d="m 1761.201,2558.8057 a 78.53936,78.53936 0 1 1 -157.0787,0 78.53936,78.53936 0 1 1 157.0787,0 z"
       transform="translate(-13.131984,-2152.184)"
       id="path3863"
       style="fill:#921325;fill-opacity:1;stroke:none" />
    <path
       d="m 1305.6222,1686.2864 -23.7386,-3.0304 -0.5051,-76.2666 c 6.1168,-8.3369 11.8861,-16.7124 29.7995,-23.7385 l 479.3174,1.5152 c 16.3477,1.1665 53.8748,18.6878 81.3172,27.7792 l -1.0101,29.2944 61.6193,0 12.6269,8.5863 399.0103,7.071 82.3274,-10.1015 9.0914,-70.2056 27.2741,-4.0406 -2.0203,-12.6269 184.8579,-19.1929 0.5051,40.4061 -260.6194,100.0051 -539.4214,-22.7284 -88.8934,-46.467 -409.6169,0 z"
       transform="translate(0,-2147.6383)"
       id="path3867"
       style="fill:#86ba56;fill-opacity:1;stroke:none" />
    <path
       d="m 2415.7143,1447.8571 -5,-76.4285 c -17.5355,1.377 -24.3814,6.3173 -30.7143,11.4285 -4.5238,5.8043 -9.0476,13.2451 -13.5714,22.8572 l -2.1429,45.7143 z"
       transform="translate(0,-2147.6383)"
       id="path3869"
       style="fill:#86ba56;fill-opacity:1;stroke:none" />
    <path
       d="m 2246.4286,1177.8571 -95.7143,3.5715 -12.8572,50.7143 -140,6.4285 -23.5714,-52.1428 -148.5714,5.7143 0.7143,-19.2858 404.2857,-12.1428 1.4286,-137.1429 26.4285,0 -8.5714,47.1429 z"
       transform="translate(0,-2147.6383)"
       id="path3871"
       style="fill:#86ba56;fill-opacity:1;stroke:none" />
    <path
       d="m 1490.7143,1278.5714 -6.4286,0 5,45.7143 c 3.105,5 4.5029,10 18.5714,15 l 135,-18.5714 124.2858,-8.5714 c 6.3062,0.1936 12.814,-0.5205 22.8571,-17.1429 l -6.4286,-121.4286 -312.1428,6.4286 8.1096,61.7245 5.4618,0.9668 -4.2857,-39.8342 296.4286,-7.8571 6.4285,96.4286 c -5.416,12.9724 -8.5229,12.09 -12.1428,14.2857 l -132.1429,7.1428 -126.4286,17.8572 c -16.2612,-0.558 -12.8348,-6.7411 -17.1428,-10.7143 z"
       transform="translate(0,-2147.6383)"
       id="path3873"
       style="fill:#86ba56;fill-opacity:1;stroke:none" />
    <path
       d="M 1486.3499,1444.4961 1320,1472.1429 c -4.6293,3.704 -13.3463,6.8116 -14.3114,14.1798 3.327,6.6667 5.5825,13.4392 20.0257,20.1059 9.1453,2.534 33.419,1.2575 67.1428,1.4285 l -2.1428,13.5715 c -19.8007,-0.2187 -39.4379,1.2666 -55.7143,-0.7143 -11.6517,-1.0297 -18.1617,-3.3178 -31.4286,-12.1429 -5.3826,-4.3969 -12.7477,-11.5625 -12.8571,-22.8571 0.039,-7.6749 6.7622,-20.459 15,-23.5714 -0.1199,-0.7398 113.9207,-19.5535 174.8154,-28.6774 2.4647,4.0476 3.3411,5.7118 5.8202,11.0306 z"
       transform="translate(0,-2147.6383)"
       id="path3875"
       style="fill:#f6d7e4;fill-opacity:1;stroke:none"
       inkscape:connector-curvature="0"
       sodipodi:nodetypes="cccccccccccc" />
    <path
       d="m 1486.4286,1444.2857 0,10.7143 -5.7143,11.3884 -7.8572,-2.817 -36.4285,3.5715 -2.8572,11.4285 c -38.1034,7.1489 -38.8526,22.7585 -40.687,29.4446 l -62.1701,-0.1589 c -4.3619,-0.056 -24.9095,-8.0351 -24.947,-21.5344 0.029,-5.8389 2.883,-11.8588 14.2327,-14.8941 z"
       transform="translate(0,-2147.6383)"
       id="path3877"
       style="fill:#86ba56;fill-opacity:1;stroke:none"
       inkscape:connector-curvature="0"
       sodipodi:nodetypes="ccccccccccc" />
    <path
       d="m 1432.8571,1480 55,25.7143 2.1429,-3.5714 18.5714,10 4.2858,-7.1428 18.5714,8.5713 L 1575,1515 l 10,-20 -77.8571,-37.1429 -3.5715,6.4286 -17.1428,-9.2857 -5.7143,11.4285 -7.1429,-2.8571 -37.8571,2.8572 z"
       transform="translate(0,-2147.6383)"
       id="path3879"
       style="fill:#f0e74a;fill-opacity:1;stroke:none" />
    <path
       d="m 1422.1429,1182.8571 9.2857,0 7.8571,62.1429 -7.1428,0.7143 z"
       transform="translate(0,-2147.6383)"
       id="path3881"
       style="fill:#86ba56;fill-opacity:1;stroke:none" />
    <path
       d="m 1444.2857,1286.4286 5,43.5714 c -2.2413,8.2349 -5.4017,15.5507 -11.4286,20 l -134.2857,18.5714 -140,1.4286 c -37.8169,-8.4977 -30.9363,-10.61 -45,-15.7143 -51.434,-40.7777 -36.9307,-34.8497 -47.1428,-46.4286 0,0 -325.00003,-984.28567 -322.85717,-972.8571 C 750.71429,346.42857 740,297.85714 740,297.85714 c -2.2855,-10.23809 -2.23369,-20.47619 -0.71428,-30.71428 l 314.99998,955.71424 27.1429,83.5715 c 8.8966,13.847 24.2953,27.1005 43.5714,40 11.778,4.1014 9.549,6.0478 43.5714,13.5714 l 133.5715,-0.7143 L 1426.4286,1340 c 8.2738,-4.623 10.0394,-11.4154 12.8571,-17.8571 l -5.7143,-35.7143 z"
       transform="translate(0,-2147.6383)"
       id="path3883"
       style="fill:#86ba56;fill-opacity:1;stroke:none" />
    <path
       d="m 2062.8571,1389.2857 -0.7142,7.8572 -382.1429,16.4285 0,37.8572 -7.1429,0.7143 0,-39.2858 c 0.7887,-2.9911 3.5109,-5.3376 10,-6.4285 z"
       transform="translate(0,-2147.6383)"
       id="path3885"
       style="fill:#86ba56;fill-opacity:1;stroke:none" />
    <path
       d="m 2135,1386.4286 84.2857,-3.5715 c 10.2921,2.2446 27.4824,3.5143 40,14.2858 9.8226,6.4816 11.7989,21.3327 14.2857,32.1428 0.4314,12.1429 1.1176,24.2857 -2.1428,36.4286 -6.3966,15.7924 -7.6293,17.9084 -15.7143,30 -5.3352,8.2894 -18.704,13.3604 -25.7143,14.2857 l -545.7143,-1.4286 c -11.1534,-5.4762 -9.7975,-10.9523 -12.1428,-16.4285 l 0,-12.1429 6.4285,0 1.4286,14.2857 c 2.1562,3.5581 4.5368,6.8918 8.5714,8.5715 l 544.2857,-0.7143 c 6.6027,-4.3821 12.2768,-5.1644 22.1429,-17.8572 4.4301,-6.545 8.9482,-16.1298 12.1429,-32.1428 1.9626,-19.4014 -1.3551,-28.2421 -5,-36.4286 -9.2901,-14.4978 -15.5691,-17.4186 -27.1429,-22.8572 -9.3155,-2.5468 -14.489,-2.8281 -26.4286,-3.5714 l -72.8571,4.2857 z"
       transform="translate(0,-2147.6383)"
       id="path3887"
       style="fill:#86ba56;fill-opacity:1;stroke:none" />
    <path
       d="m 2063.7417,1388.7965 c -2.507,-4.5549 -5.4359,-8.8988 -10.6067,-12.1218 l -376.2818,18.6878 c -11.7699,2.3264 -14.0361,9.0788 -16.1624,15.1522 l -1.5152,30.3046 c 2.7315,3.6856 3.3005,7.5685 13.1319,10.6066 l 0,-40.9111 c 2.0414,-1.5152 5.2137,-3.0305 8.5863,-4.5457 z"
       transform="translate(0,-2147.6383)"
       id="path3891"
       style="fill:#f6d7e4;fill-opacity:1;stroke:none" />
    <path
       d="m 2135.4625,1386.2711 c 1.0228,-3.626 0.4799,-6.4692 6.566,-12.6269 l 83.3376,-2.5254 c 27.3793,6.8091 27.6679,8.2547 42.4264,16.6675 20.9501,25.0539 17.27,41.8977 19.1929,60.6092 -6.1709,38.3096 -14.8029,37.2418 -22.2234,55.5584 -8.2666,6.8347 -16.2158,14.9389 -25.7589,16.6675 l -556.594,1.0101 c -10.3182,-4.0823 -17.2905,-12.2522 -22.2233,-25.7588 -0.4922,-12.8083 5.0914,-14.279 11.1116,-16.6676 l 0,14.1422 c 4.5457,13.3143 9.0913,13.5027 13.637,16.6675 l 550.5332,-1.0102 c 8.0133,-1.7567 18.2652,-8.5853 30.3046,-27.7792 6.5236,-12.3955 10.619,-26.0052 9.0913,-42.4264 -0.2855,-20.6641 -6.8468,-32.9605 -15.1523,-42.9314 -14.6805,-10.0333 -26.8517,-12.5384 -38.8908,-14.6473 z"
       transform="translate(0,-2147.6383)"
       id="path3893"
       style="fill:#f6d7e4;fill-opacity:1;stroke:none" />
    <path
       d="M 700,1471.4286 1049.2857,1495 c 4.0037,0.7454 26.2479,5.6505 50,27.8571 14.6536,15.4762 22.2501,30.9524 23.5714,46.4286 l 4.2858,64.2857 L 385,1587.1429 384.28571,1464.2857 c 91.76479,1.8029 180.07242,1.7948 270.35715,4.6428 l -0.35715,7.5001 -260.71428,-4.2857 1.42857,104.2857 723.5714,44.2857 -4.2857,-53.5714 c -7.8536,-34.092 -38.8798,-56.5731 -54.8214,-61.6072 C 1053.3654,1499.881 820.4762,1488.3333 700,1480 z"
       transform="translate(0,-2147.6383)"
       id="path3897"
       style="fill:#86ba56;fill-opacity:1;stroke:none" />
    <path
       d="M 770,670 639.28571,300.71428 625.71429,53.571425 109.28571,214.28571 l 247.85715,202.14286 281.42857,646.42853 15.71428,134.2858 -6.42857,123.5714 22.14286,0.7143 c 11.73861,-5 15.23344,-2.8572 24.28572,-8.5715 l 127.14285,6.4286 L 855,1332.8571 c 32.54223,1.5246 78.62626,7.1117 94.28572,3.5715 15.60115,-6.8175 27.92199,-18.0088 32.14285,-40 1.71592,-20.2743 -19.52381,-68.0953 -29.28571,-102.1429 l -8.57143,2.8572 25.71429,69.2857 c 2.48566,21.0761 -2.96469,28.2641 -7.85715,36.4285 -10.59544,10.1189 -24.03148,17.3971 -47.85714,14.2858 l -255,-12.1429 5.71428,-105.7143 -15.71428,-141.4286 -32.14286,-74.99996 220.71429,-94.28571 89.28571,253.57147 5,-2.1429 -132.14285,-383.57143 -6.42858,1.42857 31.42858,88.57143 -225.7143,97.14286 -229.99999,-532.85715 -227.85714,-182.85714 475,-150 15,225.71429 132.14285,370 z"
       transform="translate(0,-2147.6383)"
       id="path3899"
       style="fill:#86ba56;fill-opacity:1;stroke:none" />
    <path
       d="m 1631.4286,2985.7143 52.8571,-2.1429 3.5714,77.1429 -52.1428,2.1428 z"
       transform="translate(0,-2147.6383)"
       id="path3901"
       style="fill:#2f59a2;fill-opacity:1;stroke:none" />
    <path
       d="m 1932.8571,1642.5 0,-3.9286 -52.5,-0.3571 -0.1046,-21.6378 52.583,0.1659 -0.083,-4.4732 -61.829,-0.1263 0.022,30.4221 z"
       transform="translate(0,-2147.6383)"
       id="path3903"
       style="fill:#921325;fill-opacity:1;stroke:none" />
    <path
       d="m 2097.1429,1652.8571 15,-17.8571 221.0714,5.3571 95.3571,-11.0714 -1.7857,17.5 -82.8571,10.7143 z"
       transform="translate(0,-2147.6383)"
       id="path3905"
       style="fill:#9c8abd;fill-opacity:1;stroke:none" />
    <path
       d="m 2140.2607,1298.1353 -60.4829,3.9143 -1.7677,-28.5368 60.4828,-4.6719 0.1263,3.4092 -52.5279,4.2932 1.7677,21.7183 52.2754,-3.9144 z"
       transform="translate(0,-2147.6383)"
       id="path3907"
       style="fill:#921325;fill-opacity:1;stroke:none" />
    <path
       d="m 1973.5855,1278.4373 60.1041,-4.1669 1.5152,28.7894 -59.4727,4.1669 -0.2525,-4.0406 51.8966,-3.283 -1.1365,-21.7183 -52.5279,3.9143 z"
       transform="translate(0,-2147.6383)"
       id="path3909"
       style="fill:#921325;fill-opacity:1;stroke:none" />
    <path
       d="m 1825.5357,1191.7857 1.0714,17.5 155.3572,-5.5357 -7.8572,-17.5 z"
       transform="translate(0,-2147.6383)"
       id="path3911"
       style="fill:#9c8abd;fill-opacity:1;stroke:none" />
    <path
       d="m 1628.9286,2814.6429 18.2143,-0.3572 -6.4286,-125.7143 L 1620,2682.5 z"
       transform="translate(0,-2147.6383)"
       id="path3913"
       style="fill:#9c8abd;fill-opacity:1;stroke:none" />
    <path
       d="m 1476.4286,2522.8571 1.0714,18.2143 -151.0714,4.2857 -0.3572,-18.9285 z"
       transform="translate(0,-2147.6383)"
       id="path3915"
       style="fill:#9c8abd;fill-opacity:1;stroke:none" />
  </g>
</svg>
